<svg xmlns="http://www.w3.org/2000/svg" viewBox="0 -0.5 16 16" shape-rendering="crispEdges">
  <path stroke="#b26411" d="M6 0h4M4 1h2M10 1h2M3 2h1M6 2h1M12 2h1M2 3h1M13 3h1M2 4h1M1 5h1M3 5h1M1 6h1M1 7h1M1 8h1M3 8h1M3 12h1M11 12h2M4 13h1M8 13h4M6 14h1M8 14h2" />
  <path stroke="#fdf55f" d="M6 1h2M5 2h1M4 3h1M3 4h1M2 5h1M2 6h1M8 7h1M7 8h1M2 9h1M6 9h1M9 9h2M3 10h1M4 11h2M6 12h3" />
  <path stroke="#fad64a" d="M8 1h2M10 2h1M11 3h1M12 4h1M13 5h1M13 6h1M2 7h1M13 7h1M2 8h1M8 8h1M13 8h1M3 9h1M7 9h1M11 9h1M13 9h1M4 10h4M12 10h1M6 11h2M10 11h2M9 12h1" />
  <path stroke="#e9b115" d="M4 2h1M9 2h1M11 2h1M3 3h1M12 3h1M12 5h1M8 9h1M12 9h1M8 10h4M8 11h2" />
  <path stroke="#752802" d="M13 4h1M14 5h1M14 6h1M14 7h1M14 8h1M1 9h1M14 9h1M1 10h1M14 10h1M2 11h1M13 11h1M2 12h1M13 12h1M3 13h1M12 13h1M4 14h2M10 14h2M6 15h4" />
  <path stroke="#fbf7b7" d="M7 7h1M4 9h2" />
  <path stroke="#d99413" d="M12 8h1" />
  <path stroke="#dc9613" d="M2 10h1M13 10h1M3 11h1M12 11h1M4 12h2M10 12h1M5 13h3M7 14h1" />
  </svg>