<svg xmlns="http://www.w3.org/2000/svg" viewBox="0 -0.5 16 16" shape-rendering="crispEdges">
  <metadata>Made with Pixels to Svg https://codepen.io/shshaw/pen/XbxvNj</metadata>
  <path stroke="#474747" d="M4 1h2M3 2h1M6 2h1M2 3h1M2 4h1M2 5h1M4 5h1M2 6h1M4 6h1M2 7h1M4 7h1M6 7h1M5 8h1" />
  <path stroke="#b9b9b9" d="M4 2h2M3 3h1M3 4h1" />
  <path stroke="#9e9e9e" d="M4 3h1M3 5h1M3 6h1M4 8h1M6 8h1M5 9h1" />
  <path stroke="#323232" d="M5 3h1M7 3h1M4 4h1M6 4h2M7 7h1M2 8h1M7 8h1M3 9h1M6 9h1M4 10h2" />
  <path stroke="#717171" d="M6 3h1M3 7h1M3 8h1M4 9h1" />
  <path stroke="#161616" d="M11 7h1M10 8h1M12 8h1M9 9h1M8 10h1M7 11h1M12 11h1M7 12h1M11 12h2M7 13h1M10 13h1M10 14h1" />
  <path stroke="#565656" d="M11 8h1M10 10h1M8 12h1M8 13h1M13 13h1" />
  <path stroke="#282828" d="M10 9h1M12 10h1M8 11h1M11 11h1M10 12h1M13 12h1M11 13h1M9 14h1" />
  <path stroke="#333333" d="M11 9h1M9 10h1M9 11h1M9 13h1M12 13h1" />
  <path stroke="#070707" d="M12 9h1M13 10h1M13 11h1M14 12h1M14 13h1M8 14h1M11 14h3M9 15h2" />
  <path stroke="#7f7f7f" d="M11 10h1M9 12h1" />
  <path stroke="#a8a8a8" d="M10 11h1" />
  </svg>