<svg xmlns="http://www.w3.org/2000/svg" viewBox="0 -0.5 16 16" shape-rendering="crispEdges">
  <path stroke="#74b44a" d="M0 0h1M8 2h1" />
  <path stroke="#76b64c" d="M1 0h1M9 0h1" />
  <path stroke="#73b349" d="M2 0h1M11 1h1" />
  <path stroke="#66a63c" d="M3 0h2" />
  <path stroke="#6faf45" d="M5 0h1" />
  <path stroke="#5f9f35" d="M6 0h1M8 1h1M8 3h1" />
  <path stroke="#6cac42" d="M7 0h1M1 1h1M13 1h1" />
  <path stroke="#7ebe54" d="M8 0h1" />
  <path stroke="#6aaa40" d="M10 0h1" />
  <path stroke="#67a73d" d="M11 0h1M14 1h1" />
  <path stroke="#69a93f" d="M12 0h1M4 2h1" />
  <path stroke="#61a137" d="M13 0h1M12 1h1" />
  <path stroke="#509026" d="M14 0h1" />
  <path stroke="#6dad43" d="M15 0h1M10 3h1" />
  <path stroke="#75b54b" d="M0 1h1" />
  <path stroke="#8ab95a" d="M2 1h1" />
  <path stroke="#81b051" d="M3 1h1" />
  <path stroke="#83b253" d="M4 1h1" />
  <path stroke="#593d29" d="M5 1h1M1 2h1M5 2h1M7 2h1M12 2h1M15 2h1M0 3h1M2 3h2M5 3h3M9 3h1M11 3h1M13 3h2M4 4h1M8 4h3M14 4h1M1 5h1M6 5h3M11 5h1M9 7h1M7 8h1M14 8h1M2 9h1M5 9h2M8 10h1M11 10h1M12 11h1M15 11h1M1 12h1M9 13h1M11 13h1M2 14h1M5 14h1M7 14h1M15 15h1" />
  <path stroke="#68a83e" d="M6 1h1" />
  <path stroke="#62a238" d="M7 1h1" />
  <path stroke="#93c263" d="M9 1h1" />
  <path stroke="#90bf60" d="M10 1h1" />
  <path stroke="#6bab41" d="M15 1h1" />
  <path stroke="#8dbc5d" d="M0 2h1" />
  <path stroke="#9ccb6c" d="M2 2h1" />
  <path stroke="#64a43a" d="M3 2h1" />
  <path stroke="#70b046" d="M6 2h1" />
  <path stroke="#7fbf55" d="M9 2h1" />
  <path stroke="#92c162" d="M10 2h1" />
  <path stroke="#97c667" d="M11 2h1" />
  <path stroke="#57972d" d="M13 2h1" />
  <path stroke="#60a036" d="M14 2h1" />
  <path stroke="#6c6c6c" d="M1 3h1M11 4h1M8 11h1" />
  <path stroke="#71b147" d="M4 3h1" />
  <path stroke="#79553a" d="M12 3h1M15 3h1M1 4h1M6 4h2M12 4h1M15 4h1M0 5h1M4 5h1M9 5h2M12 5h3M1 6h3M5 6h2M9 6h1M12 6h1M14 6h1M0 7h2M6 7h2M12 7h2M1 8h2M4 8h1M6 8h1M8 8h1M11 8h3M15 8h1M0 9h1M3 9h2M7 9h5M14 9h1M0 10h1M2 10h1M5 10h1M15 10h1M1 11h2M6 11h1M11 11h1M14 11h1M0 12h1M3 12h1M7 12h7M0 13h1M2 13h2M5 13h1M8 13h1M12 13h1M1 14h1M4 14h1M6 14h1M10 14h1M12 14h2M1 15h1M5 15h1M7 15h1M10 15h2M14 15h1" />
  <path stroke="#966c4a" d="M0 4h1M2 4h1M5 4h1M13 4h1M2 5h2M5 5h1M13 6h1M15 6h1M4 7h2M8 7h1M10 7h2M14 7h2M0 8h1M3 8h1M5 8h1M9 8h2M1 9h1M15 9h1M1 10h1M7 10h1M12 10h2M0 11h1M3 11h2M7 11h1M9 11h2M13 11h1M2 12h1M4 12h2M1 13h1M6 13h2M14 13h2M0 14h1M11 14h1M14 14h2M0 15h1M3 15h2M8 15h2M12 15h2" />
  <path stroke="#b9855c" d="M3 4h1M15 5h1M0 6h1M7 6h2M10 6h2M2 7h2M12 9h2M3 10h2M6 10h1M9 10h2M5 11h1M6 12h1M14 12h2M10 13h1M13 13h1M3 14h1M8 14h2M2 15h1" />
  <path stroke="#878787" d="M4 6h1M14 10h1M6 15h1" />
  <path stroke="#745844" d="M4 13h1" />
</svg>