<?xml version="1.0" standalone="no"?>
<!DOCTYPE svg PUBLIC "-//W3C//DTD SVG 20010904//EN"
 "http://www.w3.org/TR/2001/REC-SVG-20010904/DTD/svg10.dtd">
<svg version="1.0" xmlns="http://www.w3.org/2000/svg"
 width="700.000000pt" height="700.000000pt" viewBox="0 0 700.000000 700.000000"
 preserveAspectRatio="xMidYMid meet">
<g transform="translate(0.000000,700.000000) scale(0.100000,-0.100000)"
fill="#000000" stroke="none">
<path d="M3960 5480 l0 -1520 -1981 -1980 -1980 -1980 420 0 420 0 767 768
768 767 1080 5 c1074 5 1081 5 1127 26 35 17 312 288 1232 1208 l1187 1187 0
1398 c0 1580 6 1465 -78 1553 -34 34 -64 54 -104 68 -56 20 -86 20 -1458 20
l-1400 0 0 -1520z"/>
<path d="M2476 5514 c-531 -531 -887 -895 -904 -923 l-27 -46 -3 -1200 -2
-1200 907 907 908 908 0 1215 c0 668 -1 1215 -2 1215 0 0 -395 -394 -877 -876z"/>
</g>
</svg>
